<svg width="99" height="122" viewBox="0 0 99 122" fill="none" xmlns="http://www.w3.org/2000/svg">
<path d="M114.529 52.5565V39.0157C114.529 38.4772 114.39 37.9481 114.127 37.4816C113.863 37.0152 113.483 36.6278 113.026 36.3586L101.526 29.5851C101.069 29.316 100.551 29.1744 100.024 29.1744C99.4965 29.1744 98.9785 29.316 98.5218 29.5851L87.0334 36.3586C86.5764 36.6278 86.197 37.0152 85.9333 37.4816C85.6696 37.9481 85.5309 38.4772 85.5313 39.0157V52.5606C85.5309 53.0991 85.6696 53.6282 85.9333 54.0946C86.197 54.561 86.5764 54.9484 87.0334 55.2176L98.5218 61.985C98.9785 62.254 99.4965 62.3957 100.024 62.3957C100.551 62.3957 101.069 62.254 101.526 61.985L113.02 55.2115C113.478 54.9432 113.859 54.5565 114.123 54.0904C114.388 53.6243 114.528 53.0952 114.529 52.5565Z" stroke="#2D796D" stroke-width="1.11973" stroke-miterlimit="10"/>
<path d="M66.5728 81.1543V67.6094C66.5731 67.0709 66.4345 66.5418 66.1708 66.0754C65.9071 65.6089 65.5276 65.2216 65.0706 64.9523L53.5762 58.1809C53.1195 57.9118 52.6015 57.7702 52.0741 57.7702C51.5467 57.7702 51.0287 57.9118 50.572 58.1809L39.0776 64.9544C38.6206 65.2236 38.2412 65.611 37.9775 66.0774C37.7138 66.5439 37.5751 67.073 37.5754 67.6115V81.1564C37.5751 81.6949 37.7138 82.224 37.9775 82.6904C38.2412 83.1568 38.6206 83.5442 39.0776 83.8134L50.572 90.5849C51.0287 90.8539 51.5467 90.9956 52.0741 90.9956C52.6015 90.9956 53.1195 90.8539 53.5762 90.5849L65.0746 83.8093C65.5306 83.5397 65.909 83.1525 66.172 82.6865C66.435 82.2205 66.5732 81.6921 66.5728 81.1543V81.1543Z" stroke="#2D796D" stroke-width="1.11973" stroke-miterlimit="10"/>
<path d="M50.492 52.5565V39.0157C50.4923 38.4772 50.3536 37.9481 50.09 37.4816C49.8263 37.0152 49.4468 36.6278 48.9898 36.3586L37.4954 29.5851C37.0387 29.316 36.5207 29.1744 35.9933 29.1744C35.4659 29.1744 34.9479 29.316 34.4912 29.5851L22.9968 36.3586C22.5398 36.6278 22.1603 37.0152 21.8966 37.4816C21.6329 37.9481 21.4943 38.4772 21.4946 39.0157V52.5606C21.4943 53.0991 21.6329 53.6282 21.8966 54.0946C22.1603 54.561 22.5398 54.9484 22.9968 55.2176L34.4912 61.9911C34.9479 62.2602 35.4659 62.4018 35.9933 62.4018C36.5207 62.4018 37.0387 62.2602 37.4954 61.9911L48.9898 55.2176C49.4474 54.948 49.8272 54.56 50.091 54.0928C50.3547 53.6256 50.493 53.0957 50.492 52.5565Z" stroke="#2D796D" stroke-width="1.11973" stroke-miterlimit="10"/>
<path d="M82.6536 52.5561V39.0153C82.6539 38.4768 82.5153 37.9477 82.2516 37.4812C81.9879 37.0148 81.6084 36.6274 81.1514 36.3582L69.6571 29.5868C69.2004 29.3177 68.6823 29.176 68.1549 29.176C67.6276 29.176 67.1095 29.3177 66.6528 29.5868L55.1584 36.3582C54.7014 36.6274 54.322 37.0148 54.0583 37.4812C53.7946 37.9477 53.6559 38.4768 53.6563 39.0153V52.5602C53.6559 53.0987 53.7946 53.6278 54.0583 54.0942C54.322 54.5606 54.7014 54.948 55.1584 55.2172L66.6528 61.9907C67.1095 62.2598 67.6276 62.4014 68.1549 62.4014C68.6823 62.4014 69.2004 62.2598 69.6571 61.9907L81.1514 55.2172C81.609 54.9476 81.9888 54.5597 82.2526 54.0924C82.5163 53.6252 82.6546 53.0953 82.6536 52.5561V52.5561Z" stroke="#2D796D" stroke-width="1.11973" stroke-miterlimit="10"/>
<path d="M66.5728 24.5855V11.0406C66.5731 10.5021 66.4345 9.973 66.1708 9.50656C65.9071 9.04012 65.5276 8.65278 65.0706 8.38353L53.5763 1.6121C53.1195 1.34302 52.6015 1.20135 52.0741 1.20135C51.5467 1.20135 51.0287 1.34302 50.572 1.6121L39.0776 8.38557C38.6206 8.65482 38.2412 9.04216 37.9775 9.5086C37.7138 9.97504 37.5751 10.5041 37.5754 11.0426V24.5855C37.5751 25.124 37.7138 25.6531 37.9775 26.1195C38.2412 26.586 38.6206 26.9733 39.0776 27.2426L50.572 34.014C51.0287 34.2831 51.5467 34.4247 52.0741 34.4247C52.6015 34.4247 53.1195 34.2831 53.5763 34.014L65.0746 27.2405C65.5306 26.9709 65.909 26.5837 66.172 26.1177C66.435 25.6517 66.5732 25.1233 66.5728 24.5855Z" stroke="#2D796D" stroke-width="1.11973" stroke-miterlimit="10"/>
<path d="M98.7344 81.1543V67.6094C98.7347 67.0709 98.5961 66.5418 98.3324 66.0754C98.0687 65.6089 97.6892 65.2216 97.2323 64.9523L85.7379 58.1809C85.2812 57.9118 84.7631 57.7702 84.2357 57.7702C83.7084 57.7702 83.1903 57.9118 82.7336 58.1809L71.2392 64.9523C70.7822 65.2216 70.4028 65.6089 70.1391 66.0754C69.8754 66.5418 69.7367 67.0709 69.7371 67.6094V81.1543C69.7367 81.6928 69.8754 82.2219 70.1391 82.6884C70.4028 83.1548 70.7822 83.5421 71.2392 83.8114L82.7336 90.5828C83.1903 90.8519 83.7084 90.9936 84.2357 90.9936C84.7631 90.9936 85.2812 90.8519 85.7379 90.5828L97.2323 83.8114C97.6892 83.5421 98.0687 83.1548 98.3324 82.6884C98.5961 82.2219 98.7347 81.6928 98.7344 81.1543Z" stroke="#2D796D" stroke-width="1.11973" stroke-miterlimit="10"/>
<g opacity="0.21">
<path opacity="0.21" d="M29.9802 83.8811V70.3362C29.9806 69.7977 29.8419 69.2686 29.5782 68.8021C29.3145 68.3357 28.9351 67.9483 28.4781 67.6791L16.9837 60.9097C16.527 60.6406 16.0089 60.499 15.4816 60.499C14.9542 60.499 14.4361 60.6406 13.9794 60.9097L2.48505 67.6811C2.02806 67.9504 1.64862 68.3377 1.38493 68.8042C1.12123 69.2706 0.982572 69.7997 0.982911 70.3382V83.8831C0.982572 84.4216 1.12123 84.9507 1.38493 85.4171C1.64862 85.8836 2.02806 86.2709 2.48505 86.5402L13.9794 93.3116C14.4361 93.5807 14.9542 93.7223 15.4816 93.7223C16.0089 93.7223 16.527 93.5807 16.9837 93.3116L28.4781 86.5402C28.9354 86.2707 29.315 85.8831 29.5787 85.4163C29.8424 84.9494 29.9809 84.4199 29.9802 83.8811Z" fill="#2D796D"/>
<path opacity="0.21" d="M110.099 55.2831V41.7382C110.099 41.1997 109.961 40.6706 109.697 40.2042C109.433 39.7377 109.054 39.3504 108.597 39.0811L97.1024 32.3117C96.6457 32.0427 96.1276 31.901 95.6002 31.901C95.0729 31.901 94.5548 32.0427 94.0981 32.3117L82.6037 39.0832C82.1467 39.3524 81.7673 39.7398 81.5036 40.2062C81.2399 40.6726 81.1012 41.2017 81.1016 41.7402V55.2851C81.1012 55.8236 81.2399 56.3527 81.5036 56.8192C81.7673 57.2856 82.1467 57.673 82.6037 57.9422L94.0981 64.7157C94.5548 64.9848 95.0729 65.1264 95.6002 65.1264C96.1276 65.1264 96.6457 64.9848 97.1024 64.7157L108.597 57.9422C109.054 57.6728 109.434 57.2851 109.697 56.8183C109.961 56.3515 110.1 55.8219 110.099 55.2831Z" fill="#2D796D"/>
<path opacity="0.21" d="M62.1419 83.8812V70.3363C62.1422 69.7978 62.0035 69.2687 61.7399 68.8022C61.4762 68.3358 61.0967 67.9485 60.6397 67.6792L49.1453 60.9078C48.6886 60.6387 48.1706 60.497 47.6432 60.497C47.1158 60.497 46.5978 60.6387 46.1411 60.9078L34.6467 67.6792C34.1897 67.9485 33.8102 68.3358 33.5465 68.8022C33.2829 69.2687 33.1442 69.7978 33.1445 70.3363V83.8812C33.1442 84.4197 33.2829 84.9488 33.5465 85.4152C33.8102 85.8817 34.1897 86.269 34.6467 86.5382L46.1411 93.3097C46.5978 93.5788 47.1158 93.7204 47.6432 93.7204C48.1706 93.7204 48.6886 93.5788 49.1453 93.3097L60.6397 86.5382C61.0967 86.269 61.4762 85.8817 61.7399 85.4152C62.0035 84.9488 62.1422 84.4197 62.1419 83.8812Z" fill="#2D796D"/>
<path opacity="0.21" d="M46.0611 55.2831V41.7402C46.0614 41.2017 45.9227 40.6726 45.659 40.2062C45.3953 39.7398 45.0159 39.3524 44.5589 39.0832L33.0645 32.3117C32.6078 32.0427 32.0897 31.901 31.5624 31.901C31.035 31.901 30.517 32.0427 30.0602 32.3117L18.5659 39.0832C18.1089 39.3524 17.7294 39.7398 17.4657 40.2062C17.202 40.6726 17.0634 41.2017 17.0637 41.7402V55.2831C17.0634 55.8216 17.202 56.3507 17.4657 56.8171C17.7294 57.2836 18.1089 57.6709 18.5659 57.9402L30.0602 64.7136C30.517 64.9827 31.035 65.1244 31.5624 65.1244C32.0897 65.1244 32.6078 64.9827 33.0645 64.7136L44.5589 57.9402C45.0159 57.6709 45.3953 57.2836 45.659 56.8171C45.9227 56.3507 46.0614 55.8216 46.0611 55.2831Z" fill="#2D796D"/>
<path opacity="0.21" d="M78.2227 55.2831V41.7402C78.223 41.2017 78.0844 40.6726 77.8207 40.2062C77.557 39.7398 77.1775 39.3524 76.7205 39.0832L65.2262 32.3117C64.7694 32.0427 64.2514 31.901 63.724 31.901C63.1967 31.901 62.6786 32.0427 62.2219 32.3117L50.7275 39.0832C50.2705 39.3524 49.8911 39.7398 49.6274 40.2062C49.3637 40.6726 49.225 41.2017 49.2253 41.7402V55.2831C49.225 55.8216 49.3637 56.3507 49.6274 56.8171C49.8911 57.2836 50.2705 57.6709 50.7275 57.9402L62.2219 64.7136C62.6786 64.9827 63.1967 65.1244 63.724 65.1244C64.2514 65.1244 64.7694 64.9827 65.2262 64.7136L76.7205 57.9402C77.1775 57.6709 77.557 57.2836 77.8207 56.8171C78.0844 56.3507 78.223 55.8216 78.2227 55.2831Z" fill="#2D796D"/>
<path opacity="0.21" d="M29.9802 27.3122V13.7673C29.9806 13.2288 29.8419 12.6997 29.5782 12.2333C29.3145 11.7669 28.9351 11.3795 28.4781 11.1103L16.9837 4.34089C16.527 4.07181 16.0089 3.93015 15.4816 3.93015C14.9542 3.93015 14.4361 4.07181 13.9794 4.34089L2.48505 11.1123C2.02806 11.3816 1.64862 11.7689 1.38493 12.2353C1.12123 12.7018 0.982572 13.2309 0.982911 13.7694V27.3143C0.982572 27.8528 1.12123 28.3819 1.38493 28.8483C1.64862 29.3148 2.02806 29.7021 2.48505 29.9714L13.9794 36.7448C14.4361 37.0139 14.9542 37.1556 15.4816 37.1556C16.0089 37.1556 16.527 37.0139 16.9837 36.7448L28.4781 29.9714C28.9354 29.7019 29.315 29.3143 29.5787 28.8474C29.8424 28.3806 29.9809 27.8511 29.9802 27.3122Z" fill="#2D796D"/>
<path opacity="0.21" d="M62.1419 27.3122V13.7673C62.1422 13.2288 62.0035 12.6997 61.7399 12.2333C61.4762 11.7669 61.0967 11.3795 60.6397 11.1103L49.1453 4.34089C48.6886 4.07181 48.1706 3.93015 47.6432 3.93015C47.1158 3.93015 46.5978 4.07181 46.1411 4.34089L34.6467 11.1123C34.1897 11.3816 33.8102 11.7689 33.5465 12.2353C33.2829 12.7018 33.1442 13.2309 33.1445 13.7694V27.3143C33.1442 27.8528 33.2829 28.3819 33.5465 28.8483C33.8102 29.3148 34.1897 29.7021 34.6467 29.9714L46.1411 36.7448C46.5978 37.0139 47.1158 37.1556 47.6432 37.1556C48.1706 37.1556 48.6886 37.0139 49.1453 36.7448L60.6397 29.9714C61.097 29.7019 61.4766 29.3143 61.7404 28.8474C62.0041 28.3806 62.1426 27.8511 62.1419 27.3122Z" fill="#2D796D"/>
<path opacity="0.21" d="M78.2227 111.733V98.1885C78.223 97.65 78.0844 97.1209 77.8207 96.6544C77.557 96.188 77.1775 95.8007 76.7205 95.5314L65.2262 88.76C64.7694 88.4909 64.2514 88.3492 63.724 88.3492C63.1967 88.3492 62.6786 88.4909 62.2219 88.76L50.7275 95.5314C50.2705 95.8007 49.8911 96.188 49.6274 96.6544C49.3637 97.1209 49.225 97.65 49.2253 98.1885V111.733C49.225 112.272 49.3637 112.801 49.6274 113.267C49.8911 113.734 50.2705 114.121 50.7275 114.39L62.2219 121.162C62.6786 121.431 63.1967 121.573 63.724 121.573C64.2514 121.573 64.7694 121.431 65.2262 121.162L76.7205 114.39C77.1775 114.121 77.557 113.734 77.8207 113.267C78.0844 112.801 78.223 112.272 78.2227 111.733Z" fill="#2D796D"/>
<path opacity="0.21" d="M94.3035 83.8812V70.3363C94.3038 69.7978 94.1652 69.2687 93.9015 68.8022C93.6378 68.3358 93.2583 67.9485 92.8013 67.6792L81.307 60.9078C80.8503 60.6387 80.3322 60.497 79.8048 60.497C79.2775 60.497 78.7594 60.6387 78.3027 60.9078L66.8083 67.6792C66.3513 67.9485 65.9719 68.3358 65.7082 68.8022C65.4445 69.2687 65.3058 69.7978 65.3062 70.3363V83.8812C65.3058 84.4197 65.4445 84.9488 65.7082 85.4152C65.9719 85.8817 66.3513 86.269 66.8083 86.5382L78.3027 93.3097C78.7594 93.5788 79.2775 93.7204 79.8048 93.7204C80.3322 93.7204 80.8503 93.5788 81.307 93.3097L92.8013 86.5382C93.2583 86.269 93.6378 85.8817 93.9015 85.4152C94.1652 84.9488 94.3038 84.4197 94.3035 83.8812Z" fill="#2D796D"/>
</g>
<path d="M82.6536 110.347V96.8044C82.6539 96.2659 82.5153 95.7368 82.2516 95.2704C81.9879 94.8039 81.6084 94.4166 81.1514 94.1473L69.6571 87.3759C69.2004 87.1068 68.6823 86.9651 68.1549 86.9651C67.6276 86.9651 67.1095 87.1068 66.6528 87.3759L55.1584 94.1473C54.7014 94.4166 54.322 94.8039 54.0583 95.2704C53.7946 95.7368 53.6559 96.2659 53.6563 96.8044V110.347C53.6559 110.886 53.7946 111.415 54.0583 111.881C54.322 112.348 54.7014 112.735 55.1584 113.004L66.6528 119.776C67.1095 120.045 67.6276 120.186 68.1549 120.186C68.6823 120.186 69.2004 120.045 69.6571 119.776L81.1514 113.004C81.6084 112.735 81.9879 112.348 82.2516 111.881C82.5153 111.415 82.6539 110.886 82.6536 110.347Z" stroke="#2D796D" stroke-width="0.559865" stroke-miterlimit="10"/>
<path d="M34.3826 81.1543V67.6094C34.3829 67.0709 34.2443 66.5418 33.9806 66.0754C33.7169 65.6089 33.3374 65.2216 32.8804 64.9523L21.3861 58.1809C20.9294 57.9118 20.4113 57.7702 19.8839 57.7702C19.3566 57.7702 18.8385 57.9118 18.3818 58.1809L6.8874 64.9544C6.4304 65.2236 6.05097 65.611 5.78727 66.0774C5.52357 66.5439 5.38492 67.073 5.38525 67.6115V81.1564C5.38492 81.6949 5.52357 82.224 5.78727 82.6904C6.05097 83.1568 6.4304 83.5442 6.8874 83.8134L18.3818 90.5849C18.8385 90.8539 19.3566 90.9956 19.8839 90.9956C20.4113 90.9956 20.9294 90.8539 21.3861 90.5849L32.8804 83.8134C33.3377 83.544 33.7174 83.1563 33.9811 82.6895C34.2448 82.2227 34.3833 81.6932 34.3826 81.1543Z" stroke="#2D796D" stroke-width="0.279933" stroke-miterlimit="10"/>
<path d="M34.3826 24.5855V11.0406C34.3829 10.5021 34.2443 9.973 33.9806 9.50656C33.7169 9.04012 33.3374 8.65278 32.8804 8.38353L21.3861 1.6121C20.9294 1.34302 20.4113 1.20135 19.8839 1.20135C19.3566 1.20135 18.8385 1.34302 18.3818 1.6121L6.8874 8.38557C6.4304 8.65482 6.05097 9.04216 5.78727 9.5086C5.52357 9.97504 5.38492 10.5041 5.38525 11.0426V24.5855C5.38492 25.124 5.52357 25.6531 5.78727 26.1195C6.05097 26.586 6.4304 26.9733 6.8874 27.2426L18.3818 34.014C18.8385 34.2831 19.3566 34.4247 19.8839 34.4247C20.4113 34.4247 20.9294 34.2831 21.3861 34.014L32.8804 27.2426C33.3374 26.9733 33.7169 26.586 33.9806 26.1195C34.2443 25.6531 34.3829 25.124 34.3826 24.5855Z" stroke="#2D796D" stroke-width="0.279933" stroke-miterlimit="10"/>
</svg>
