<svg width="98" height="122" viewBox="0 0 98 122" fill="none" xmlns="http://www.w3.org/2000/svg">
<g opacity="0.2">
<path d="M113.902 52.5565V39.0157C113.902 38.4772 113.763 37.9481 113.5 37.4816C113.236 37.0152 112.857 36.6278 112.4 36.3586L100.899 29.5851C100.443 29.316 99.9244 29.1744 99.3971 29.1744C98.8697 29.1744 98.3516 29.316 97.8949 29.5851L86.4066 36.3586C85.9496 36.6278 85.5701 37.0152 85.3064 37.4816C85.0427 37.9481 84.9041 38.4772 84.9044 39.0157V52.5606C84.9041 53.0991 85.0427 53.6282 85.3064 54.0946C85.5701 54.561 85.9496 54.9484 86.4066 55.2176L97.8949 61.985C98.3516 62.254 98.8697 62.3957 99.3971 62.3957C99.9244 62.3957 100.443 62.254 100.899 61.985L112.394 55.2115C112.851 54.9432 113.232 54.5565 113.497 54.0904C113.761 53.6243 113.901 53.0952 113.902 52.5565Z" stroke="#2D796D" stroke-width="1.11973" stroke-miterlimit="10"/>
<path d="M65.9458 81.1543V67.6094C65.9462 67.0709 65.8075 66.5418 65.5438 66.0754C65.2801 65.6089 64.9007 65.2216 64.4437 64.9523L52.9493 58.1809C52.4926 57.9118 51.9745 57.7702 51.4472 57.7702C50.9198 57.7702 50.4017 57.9118 49.945 58.1809L38.4506 64.9544C37.9936 65.2236 37.6142 65.611 37.3505 66.0774C37.0868 66.5439 36.9481 67.073 36.9485 67.6115V81.1564C36.9481 81.6949 37.0868 82.224 37.3505 82.6904C37.6142 83.1568 37.9936 83.5442 38.4506 83.8134L49.945 90.5849C50.4017 90.8539 50.9198 90.9956 51.4472 90.9956C51.9745 90.9956 52.4926 90.8539 52.9493 90.5849L64.4477 83.8093C64.9036 83.5397 65.2821 83.1525 65.545 82.6865C65.808 82.2205 65.9462 81.6921 65.9458 81.1543V81.1543Z" stroke="#2D796D" stroke-width="1.11973" stroke-miterlimit="10"/>
<path d="M49.865 52.5565V39.0157C49.8654 38.4772 49.7267 37.9481 49.463 37.4816C49.1993 37.0152 48.8199 36.6278 48.3629 36.3586L36.8685 29.5851C36.4118 29.316 35.8937 29.1744 35.3663 29.1744C34.839 29.1744 34.3209 29.316 33.8642 29.5851L22.3698 36.3586C21.9128 36.6278 21.5334 37.0152 21.2697 37.4816C21.006 37.9481 20.8673 38.4772 20.8677 39.0157V52.5606C20.8673 53.0991 21.006 53.6282 21.2697 54.0946C21.5334 54.561 21.9128 54.9484 22.3698 55.2176L33.8642 61.9911C34.3209 62.2602 34.839 62.4018 35.3663 62.4018C35.8937 62.4018 36.4118 62.2602 36.8685 61.9911L48.3629 55.2176C48.8205 54.948 49.2003 54.56 49.464 54.0928C49.7277 53.6256 49.8661 53.0957 49.865 52.5565Z" stroke="#2D796D" stroke-width="1.11973" stroke-miterlimit="10"/>
<path d="M82.0266 52.5561V39.0153C82.027 38.4768 81.8883 37.9477 81.6246 37.4812C81.3609 37.0148 80.9815 36.6274 80.5245 36.3582L69.0301 29.5868C68.5734 29.3177 68.0553 29.176 67.528 29.176C67.0006 29.176 66.4825 29.3177 66.0258 29.5868L54.5314 36.3582C54.0744 36.6274 53.695 37.0148 53.4313 37.4812C53.1676 37.9477 53.029 38.4768 53.0293 39.0153V52.5602C53.029 53.0987 53.1676 53.6278 53.4313 54.0942C53.695 54.5606 54.0744 54.948 54.5314 55.2172L66.0258 61.9907C66.4825 62.2598 67.0006 62.4014 67.528 62.4014C68.0553 62.4014 68.5734 62.2598 69.0301 61.9907L80.5245 55.2172C80.9821 54.9476 81.3619 54.5597 81.6256 54.0924C81.8894 53.6252 82.0277 53.0953 82.0266 52.5561V52.5561Z" stroke="#2D796D" stroke-width="1.11973" stroke-miterlimit="10"/>
<path d="M65.9458 24.5855V11.0406C65.9462 10.5021 65.8075 9.973 65.5438 9.50656C65.2801 9.04012 64.9007 8.65278 64.4437 8.38353L52.9493 1.6121C52.4926 1.34302 51.9745 1.20135 51.4472 1.20135C50.9198 1.20135 50.4017 1.34302 49.945 1.6121L38.4506 8.38557C37.9936 8.65482 37.6142 9.04216 37.3505 9.5086C37.0868 9.97504 36.9481 10.5041 36.9485 11.0426V24.5855C36.9481 25.124 37.0868 25.6531 37.3505 26.1195C37.6142 26.586 37.9936 26.9733 38.4506 27.2426L49.945 34.014C50.4017 34.2831 50.9198 34.4247 51.4472 34.4247C51.9745 34.4247 52.4926 34.2831 52.9493 34.014L64.4477 27.2405C64.9036 26.9709 65.2821 26.5837 65.545 26.1177C65.808 25.6517 65.9462 25.1233 65.9458 24.5855Z" stroke="#2D796D" stroke-width="1.11973" stroke-miterlimit="10"/>
<path d="M98.1074 81.1543V67.6094C98.1078 67.0709 97.9691 66.5418 97.7054 66.0754C97.4417 65.6089 97.0623 65.2216 96.6053 64.9523L85.1109 58.1809C84.6542 57.9118 84.1361 57.7702 83.6088 57.7702C83.0814 57.7702 82.5633 57.9118 82.1066 58.1809L70.6122 64.9523C70.1553 65.2216 69.7758 65.6089 69.5121 66.0754C69.2484 66.5418 69.1098 67.0709 69.1101 67.6094V81.1543C69.1098 81.6928 69.2484 82.2219 69.5121 82.6884C69.7758 83.1548 70.1553 83.5421 70.6122 83.8114L82.1066 90.5828C82.5633 90.8519 83.0814 90.9936 83.6088 90.9936C84.1361 90.9936 84.6542 90.8519 85.1109 90.5828L96.6053 83.8114C97.0623 83.5421 97.4417 83.1548 97.7054 82.6884C97.9691 82.2219 98.1078 81.6928 98.1074 81.1543Z" stroke="#2D796D" stroke-width="1.11973" stroke-miterlimit="10"/>
<g opacity="0.21">
<path opacity="0.21" d="M29.3534 83.8811V70.3362C29.3538 69.7977 29.2151 69.2686 28.9514 68.8021C28.6877 68.3357 28.3083 67.9483 27.8513 67.6791L16.3569 60.9097C15.9002 60.6406 15.3821 60.499 14.8547 60.499C14.3274 60.499 13.8093 60.6406 13.3526 60.9097L1.85822 67.6811C1.40123 67.9504 1.02179 68.3377 0.758095 68.8042C0.494398 69.2706 0.355741 69.7997 0.35608 70.3382V83.8831C0.355741 84.4216 0.494398 84.9507 0.758095 85.4171C1.02179 85.8836 1.40123 86.2709 1.85822 86.5402L13.3526 93.3116C13.8093 93.5807 14.3274 93.7223 14.8547 93.7223C15.3821 93.7223 15.9002 93.5807 16.3569 93.3116L27.8513 86.5402C28.3086 86.2707 28.6882 85.8831 28.9519 85.4163C29.2156 84.9494 29.3541 84.4199 29.3534 83.8811Z" fill="#2D796D"/>
<path opacity="0.21" d="M109.472 55.2831V41.7382C109.472 41.1997 109.334 40.6706 109.07 40.2042C108.806 39.7377 108.427 39.3504 107.97 39.0811L96.4755 32.3117C96.0188 32.0427 95.5008 31.901 94.9734 31.901C94.446 31.901 93.928 32.0427 93.4713 32.3117L81.9769 39.0832C81.5199 39.3524 81.1404 39.7398 80.8768 40.2062C80.6131 40.6726 80.4744 41.2017 80.4747 41.7402V55.2851C80.4744 55.8236 80.6131 56.3527 80.8768 56.8192C81.1404 57.2856 81.5199 57.673 81.9769 57.9422L93.4713 64.7157C93.928 64.9848 94.446 65.1264 94.9734 65.1264C95.5008 65.1264 96.0188 64.9848 96.4755 64.7157L107.97 57.9422C108.427 57.6728 108.807 57.2851 109.071 56.8183C109.334 56.3515 109.473 55.8219 109.472 55.2831Z" fill="#2D796D"/>
<path opacity="0.21" d="M61.515 83.8812V70.3363C61.5154 69.7978 61.3767 69.2687 61.113 68.8022C60.8493 68.3358 60.4699 67.9485 60.0129 67.6792L48.5185 60.9078C48.0618 60.6387 47.5437 60.497 47.0164 60.497C46.489 60.497 45.9709 60.6387 45.5142 60.9078L34.0198 67.6792C33.5629 67.9485 33.1834 68.3358 32.9197 68.8022C32.656 69.2687 32.5174 69.7978 32.5177 70.3363V83.8812C32.5174 84.4197 32.656 84.9488 32.9197 85.4152C33.1834 85.8817 33.5629 86.269 34.0198 86.5382L45.5142 93.3097C45.9709 93.5788 46.489 93.7204 47.0164 93.7204C47.5437 93.7204 48.0618 93.5788 48.5185 93.3097L60.0129 86.5382C60.4699 86.269 60.8493 85.8817 61.113 85.4152C61.3767 84.9488 61.5154 84.4197 61.515 83.8812Z" fill="#2D796D"/>
<path opacity="0.21" d="M45.4342 55.2831V41.7402C45.4346 41.2017 45.2959 40.6726 45.0322 40.2062C44.7685 39.7398 44.3891 39.3524 43.9321 39.0832L32.4377 32.3117C31.981 32.0427 31.4629 31.901 30.9356 31.901C30.4082 31.901 29.8901 32.0427 29.4334 32.3117L17.939 39.0832C17.482 39.3524 17.1026 39.7398 16.8389 40.2062C16.5752 40.6726 16.4366 41.2017 16.4369 41.7402V55.2831C16.4366 55.8216 16.5752 56.3507 16.8389 56.8171C17.1026 57.2836 17.482 57.6709 17.939 57.9402L29.4334 64.7136C29.8901 64.9827 30.4082 65.1244 30.9356 65.1244C31.4629 65.1244 31.981 64.9827 32.4377 64.7136L43.9321 57.9402C44.3891 57.6709 44.7685 57.2836 45.0322 56.8171C45.2959 56.3507 45.4346 55.8216 45.4342 55.2831Z" fill="#2D796D"/>
<path opacity="0.21" d="M77.5958 55.2831V41.7402C77.5962 41.2017 77.4575 40.6726 77.1938 40.2062C76.9301 39.7398 76.5507 39.3524 76.0937 39.0832L64.5993 32.3117C64.1426 32.0427 63.6245 31.901 63.0972 31.901C62.5698 31.901 62.0518 32.0427 61.595 32.3117L50.1007 39.0832C49.6437 39.3524 49.2642 39.7398 49.0005 40.2062C48.7368 40.6726 48.5982 41.2017 48.5985 41.7402V55.2831C48.5982 55.8216 48.7368 56.3507 49.0005 56.8171C49.2642 57.2836 49.6437 57.6709 50.1007 57.9402L61.595 64.7136C62.0518 64.9827 62.5698 65.1244 63.0972 65.1244C63.6245 65.1244 64.1426 64.9827 64.5993 64.7136L76.0937 57.9402C76.5507 57.6709 76.9301 57.2836 77.1938 56.8171C77.4575 56.3507 77.5962 55.8216 77.5958 55.2831Z" fill="#2D796D"/>
<path opacity="0.21" d="M29.3534 27.3122V13.7673C29.3538 13.2288 29.2151 12.6997 28.9514 12.2333C28.6877 11.7669 28.3083 11.3795 27.8513 11.1103L16.3569 4.34089C15.9002 4.07181 15.3821 3.93015 14.8547 3.93015C14.3274 3.93015 13.8093 4.07181 13.3526 4.34089L1.85822 11.1123C1.40123 11.3816 1.02179 11.7689 0.758095 12.2353C0.494398 12.7018 0.355741 13.2309 0.35608 13.7694V27.3143C0.355741 27.8528 0.494398 28.3819 0.758095 28.8483C1.02179 29.3148 1.40123 29.7021 1.85822 29.9714L13.3526 36.7448C13.8093 37.0139 14.3274 37.1556 14.8547 37.1556C15.3821 37.1556 15.9002 37.0139 16.3569 36.7448L27.8513 29.9714C28.3086 29.7019 28.6882 29.3143 28.9519 28.8474C29.2156 28.3806 29.3541 27.8511 29.3534 27.3122Z" fill="#2D796D"/>
<path opacity="0.21" d="M61.515 27.3122V13.7673C61.5154 13.2288 61.3767 12.6997 61.113 12.2333C60.8493 11.7669 60.4699 11.3795 60.0129 11.1103L48.5185 4.34089C48.0618 4.07181 47.5437 3.93015 47.0164 3.93015C46.489 3.93015 45.9709 4.07181 45.5142 4.34089L34.0198 11.1123C33.5629 11.3816 33.1834 11.7689 32.9197 12.2353C32.656 12.7018 32.5174 13.2309 32.5177 13.7694V27.3143C32.5174 27.8528 32.656 28.3819 32.9197 28.8483C33.1834 29.3148 33.5629 29.7021 34.0198 29.9714L45.5142 36.7448C45.9709 37.0139 46.489 37.1556 47.0164 37.1556C47.5437 37.1556 48.0618 37.0139 48.5185 36.7448L60.0129 29.9714C60.4702 29.7019 60.8498 29.3143 61.1135 28.8474C61.3772 28.3806 61.5157 27.8511 61.515 27.3122Z" fill="#2D796D"/>
<path opacity="0.21" d="M77.5958 111.733V98.1885C77.5962 97.65 77.4575 97.1209 77.1938 96.6544C76.9301 96.188 76.5507 95.8007 76.0937 95.5314L64.5993 88.76C64.1426 88.4909 63.6245 88.3492 63.0972 88.3492C62.5698 88.3492 62.0518 88.4909 61.595 88.76L50.1007 95.5314C49.6437 95.8007 49.2642 96.188 49.0005 96.6544C48.7368 97.1209 48.5982 97.65 48.5985 98.1885V111.733C48.5982 112.272 48.7368 112.801 49.0005 113.267C49.2642 113.734 49.6437 114.121 50.1007 114.39L61.595 121.162C62.0518 121.431 62.5698 121.573 63.0972 121.573C63.6245 121.573 64.1426 121.431 64.5993 121.162L76.0937 114.39C76.5507 114.121 76.9301 113.734 77.1938 113.267C77.4575 112.801 77.5962 112.272 77.5958 111.733Z" fill="#2D796D"/>
<path opacity="0.21" d="M93.6767 83.8812V70.3363C93.677 69.7978 93.5383 69.2687 93.2746 68.8022C93.0109 68.3358 92.6315 67.9485 92.1745 67.6792L80.6801 60.9078C80.2234 60.6387 79.7053 60.497 79.178 60.497C78.6506 60.497 78.1326 60.6387 77.6758 60.9078L66.1815 67.6792C65.7245 67.9485 65.345 68.3358 65.0813 68.8022C64.8176 69.2687 64.679 69.7978 64.6793 70.3363V83.8812C64.679 84.4197 64.8176 84.9488 65.0813 85.4152C65.345 85.8817 65.7245 86.269 66.1815 86.5382L77.6758 93.3097C78.1326 93.5788 78.6506 93.7204 79.178 93.7204C79.7053 93.7204 80.2234 93.5788 80.6801 93.3097L92.1745 86.5382C92.6315 86.269 93.0109 85.8817 93.2746 85.4152C93.5383 84.9488 93.677 84.4197 93.6767 83.8812Z" fill="#2D796D"/>
</g>
<path d="M82.0266 110.347V96.8044C82.027 96.2659 81.8883 95.7368 81.6246 95.2704C81.3609 94.8039 80.9815 94.4166 80.5245 94.1473L69.0301 87.3759C68.5734 87.1068 68.0553 86.9651 67.528 86.9651C67.0006 86.9651 66.4825 87.1068 66.0258 87.3759L54.5314 94.1473C54.0744 94.4166 53.695 94.8039 53.4313 95.2704C53.1676 95.7368 53.029 96.2659 53.0293 96.8044V110.347C53.029 110.886 53.1676 111.415 53.4313 111.881C53.695 112.348 54.0744 112.735 54.5314 113.004L66.0258 119.776C66.4825 120.045 67.0006 120.186 67.528 120.186C68.0553 120.186 68.5734 120.045 69.0301 119.776L80.5245 113.004C80.9815 112.735 81.3609 112.348 81.6246 111.881C81.8883 111.415 82.027 110.886 82.0266 110.347Z" stroke="#2D796D" stroke-width="0.559865" stroke-miterlimit="10"/>
<path d="M33.7558 81.1543V67.6094C33.7561 67.0709 33.6174 66.5418 33.3537 66.0754C33.09 65.6089 32.7106 65.2216 32.2536 64.9523L20.7592 58.1809C20.3025 57.9118 19.7845 57.7702 19.2571 57.7702C18.7297 57.7702 18.2117 57.9118 17.755 58.1809L6.26056 64.9544C5.80357 65.2236 5.42414 65.611 5.16044 66.0774C4.89674 66.5439 4.75809 67.073 4.75842 67.6115V81.1564C4.75809 81.6949 4.89674 82.224 5.16044 82.6904C5.42414 83.1568 5.80357 83.5442 6.26056 83.8134L17.755 90.5849C18.2117 90.8539 18.7297 90.9956 19.2571 90.9956C19.7845 90.9956 20.3025 90.8539 20.7592 90.5849L32.2536 83.8134C32.7109 83.544 33.0905 83.1563 33.3542 82.6895C33.618 82.2227 33.7564 81.6932 33.7558 81.1543Z" stroke="#2D796D" stroke-width="0.279933" stroke-miterlimit="10"/>
<path d="M33.7558 24.5855V11.0406C33.7561 10.5021 33.6174 9.973 33.3537 9.50656C33.09 9.04012 32.7106 8.65278 32.2536 8.38353L20.7592 1.6121C20.3025 1.34302 19.7845 1.20135 19.2571 1.20135C18.7297 1.20135 18.2117 1.34302 17.755 1.6121L6.26056 8.38557C5.80357 8.65482 5.42414 9.04216 5.16044 9.5086C4.89674 9.97504 4.75809 10.5041 4.75842 11.0426V24.5855C4.75809 25.124 4.89674 25.6531 5.16044 26.1195C5.42414 26.586 5.80357 26.9733 6.26056 27.2426L17.755 34.014C18.2117 34.2831 18.7297 34.4247 19.2571 34.4247C19.7845 34.4247 20.3025 34.2831 20.7592 34.014L32.2536 27.2426C32.7106 26.9733 33.09 26.586 33.3537 26.1195C33.6174 25.6531 33.7561 25.124 33.7558 24.5855Z" stroke="#2D796D" stroke-width="0.279933" stroke-miterlimit="10"/>
</g>
</svg>
